PathFileType	4	(X/Y/Z)	Patient4_TMGait_0pt2_02_left_25.trc.trc
DataRate	CameraRate	NumFrames	NumMarkers	Units	OrigDataRate	OrigDataStartFrame	OrigNumFrames
45.751633986928	45.751633986928	4	33	mm	45.751633986928	71	       141
Frame#	Time	R.Midfoot.Superior			Sacral			L.Shoulder			Chest			R.Shoulder			Neck			R.ASIS			L.ASIS			R.Thigh.Superior			R.Thigh.Lateral			R.Thigh.Inferior			R.Patella			L.Thigh.Superior			L.Thigh.Lateral			L.Thigh.Inferior			L.Patella			L.Shank.Superior			L.Shank.Lateral			L.Shank.Inferior			R.Shank.Superior			R.Shank.Lateral			R.Shank.Inferior			R.Heel			R.Midfoot.Lateral			R.Toe			L.Heel			L.Midfoot.Lateral			L.Midfoot.Superior			L.Toe			L.Elbow			L.Wrist			R.Elbow			R.Wrist			
		X1	Y1	Z1	X2	Y2	Z2	X3	Y3	Z3	X4	Y4	Z4	X5	Y5	Z5	X6	Y6	Z6	X7	Y7	Z7	X8	Y8	Z8	X9	Y9	Z9	X10	Y10	Z10	X11	Y11	Z11	X12	Y12	Z12	X13	Y13	Z13	X14	Y14	Z14	X15	Y15	Z15	X16	Y16	Z16	X17	Y17	Z17	X18	Y18	Z18	X19	Y19	Z19	X20	Y20	Z20	X21	Y21	Z21	X22	Y22	Z22	X23	Y23	Z23	X24	Y24	Z24	X25	Y25	Z25	X26	Y26	Z26	X27	Y27	Z27	X28	Y28	Z28	X29	Y29	Z29	X30	Y30	Z30	X31	Y31	Z31	X32	Y32	Z32	X33	Y33	Z33	

71	57.630000000000	1293.804176015677	125.429722558627	603.676704361283	955.394623185770	1013.792158554208	341.662458482840	1202.316834007195	1431.061704073950	204.455157290429	1244.783566124850	1365.135770326508	389.581328086268	1117.284248707860	1451.805192185774	526.104606469357	1144.489542130322	1499.605546186052	348.668896018667	1149.093440178324	953.597406967660	516.300218609450	1200.751375899899	960.024013107200	245.300942810168	1228.246436474269	782.226895152273	501.797156629395	1176.942785407510	664.702029989511	577.083571785468	1272.661262484828	622.429441038608	510.402862633232	1300.710859318966	533.159348475689	538.480045371196	1223.258217072936	743.136765496845	287.668810989067	1137.124074530269	626.510317999608	217.685533750630	1204.406635902095	550.457148167372	297.207140956608	1198.197086947428	482.135717522812	308.372692517517	1166.084830810886	410.738528515279	300.027886432674	1072.943133440267	299.164010963174	249.240100522691	1111.104537286062	190.067720051920	331.131557125820	1268.889094777381	443.918795326411	551.793854051307	1190.796277148292	346.845290469106	618.441865406170	1246.762200817247	245.191421400565	578.709999412789	1122.132874036215	74.180537115541	557.760431115015	1204.287007561980	59.090793615957	632.033654384941	1411.172648772461	71.781182987475	630.203524680990	973.160099741565	39.402049392589	376.237075293826	1047.180637789348	35.667942617761	295.738514499411	1131.747166241458	96.331800224538	322.126393716260	1259.626536984592	41.005273232297	294.776210480621	1360.601860751424	1148.232716378455	61.333073074527	1612.062993624790	1173.063585120344	117.425040292703	923.102920092561	1160.594345963559	597.720237464301	878.299959166014	901.695385978943	601.298115352403	
72	57.651857142857	1290.896310211528	122.939112272975	604.334566524366	954.184803763872	1012.663770326073	342.702722478707	1199.024118761583	1430.813490973453	206.235013887116	1240.337064906184	1365.908823307134	391.964572487721	1111.106603588927	1452.209951979307	527.107837086353	1139.338014591851	1499.445333766759	349.586527041464	1146.976672809667	952.946607491260	518.323063279420	1200.169381825586	960.561989339846	247.807563407173	1225.893590322108	779.946968979770	504.315199455491	1171.478998969176	662.414130143723	578.037035720784	1267.351299163291	619.699745242754	512.589466926102	1293.321469365260	530.582607447196	539.442874024366	1220.988469918754	742.575968635661	288.776037286695	1133.795456332451	626.889520287172	218.002896957201	1200.103798606427	549.915655055625	297.197049229039	1193.102219157041	481.886292965577	308.187245060019	1161.374271910968	410.767767564305	299.755530304032	1068.187939806245	299.147595439225	248.757503797417	1106.502313163675	190.119108809400	330.859687956757	1262.928414399673	441.013043175804	552.827728966250	1186.132993763752	343.256466486468	619.858474656303	1242.742308558457	242.204823105602	579.762369261246	1119.332168266185	70.550981217725	559.635957188328	1201.995289654855	56.205229126495	633.436267488824	1408.563826333006	69.980418230635	630.169432276305	968.699371694644	39.357370491714	376.179136096294	1042.750298621374	35.562516158694	295.659035282380	1127.289817177490	96.278614319847	322.017025164390	1255.239437915038	41.024355206889	294.822023331774	1363.036901424982	1150.191979699431	66.232617609774	1613.951930533159	1179.044893557207	122.374020138255	920.872190954593	1157.855955862255	596.766499809102	882.777756618130	897.704289930167	599.510258304104	
73	57.673714285714	1285.326321152561	120.020929615809	603.982024707025	953.176764970605	1011.371848155175	344.357283422887	1195.332909831060	1430.464660300498	208.223639554588	1235.996145221819	1366.590782383257	394.442131961143	1105.294883901124	1452.385399546089	528.526075954377	1134.160932401358	1499.131451213658	350.860948724438	1145.400667285910	952.082531135321	520.518375713162	1199.620111980154	961.083476709601	250.386797896298	1224.017601157248	777.209148975866	506.672380452051	1166.214398213797	659.865991831145	578.703648024715	1262.003559873471	616.535587471649	514.345177525334	1285.525561017556	527.394529502952	539.819507405612	1219.086155591107	742.011549492310	289.932502389776	1130.811582010214	627.185472145193	218.579112865506	1196.302550590915	549.339683870504	297.360287232123	1188.585176042963	481.542375381124	308.204829910075	1157.111265886119	410.691929885718	299.691601609286	1063.750377334233	299.176195253412	248.440384729564	1102.045306353116	190.116859361346	330.668692650244	1256.216143765586	437.543952061088	553.320428016266	1180.242860736993	339.573581034620	620.658674348878	1236.843575924884	238.892057843566	580.076002085198	1113.654028967668	67.477472124549	560.811676576881	1196.758718439484	53.586136189655	634.084801413286	1402.989088656259	67.196576237269	629.166347663284	964.225853290768	39.330555214355	376.116650937789	1038.318105381300	35.466704735235	295.573290190541	1122.837114286358	96.228120011627	321.916964809871	1250.851416446869	41.042486976871	294.854649836676	1364.326507368357	1151.680546108574	71.101546246105	1614.888245506299	1183.488190585081	127.093800558715	919.498677369716	1154.621272090395	596.991855236569	888.431414210479	893.391569041949	599.354672713822	
74	57.695571428571	1277.953509035357	116.770027784724	602.759394765566	952.344128592603	1010.007550877706	346.610936403196	1191.342806332810	1430.050259514803	210.413730487016	1231.834211911819	1367.200125823079	397.014979374534	1099.936339065148	1452.382186526200	530.363057515402	1129.051557133647	1498.716563925347	352.493892819942	1144.322621204891	951.077833595030	522.911755485273	1199.080277046504	961.583626721359	253.052864495272	1222.384784547098	774.011970301833	508.919412911661	1160.970837181161	657.123815922043	579.196689813528	1256.400280579491	612.963622740548	515.702161567037	1277.240516834476	523.764523732016	539.677951968824	1217.531051910645	741.471144748538	291.178096906648	1128.168473737045	627.413150111446	219.441935820956	1193.021384410217	548.755622883033	297.724257241023	1184.679691449797	481.119823313427	308.446416168155	1153.316727305896	410.520167125543	299.861271543696	1059.645792029366	299.268662535861	248.316217109587	1097.743758564904	190.067108066252	330.564605121170	1248.820705157960	433.682006337676	553.350974382456	1173.410809540397	335.736139833098	620.962205792039	1229.609358391560	235.277226036971	579.756345601929	1106.020599650382	64.574621653922	561.420654760056	1189.563830308864	51.062934733067	634.124662825886	1395.501618255578	63.823043954943	627.340756398956	959.747060228022	39.335465796903	376.047909196571	1033.886648701206	35.390775900839	295.482692656242	1118.395555755945	96.183373320352	321.825908229809	1246.461714510797	41.051543338540	294.872633868492	1364.527637820649	1152.675568552549	75.902479932387	1614.979279198172	1186.417380736365	131.559952676188	918.803953554950	1151.187873893513	598.420032825696	894.837335491489	889.105724511842	600.876164378897	
